<svg width="36" height="36" viewBox="0 0 36 36" fill="none" xmlns="http://www.w3.org/2000/svg">
<path d="M19.6667 31.9678C23.1969 31.5218 26.4237 29.7579 28.6911 27.0347C30.9585 24.3114 32.0964 20.8331 31.8736 17.3067C31.6507 13.7804 30.0838 10.4706 27.4914 8.05005C24.8989 5.62952 21.4754 4.27992 17.9167 4.27554C14.3536 4.2729 10.9236 5.61921 8.32552 8.04014C5.72745 10.4611 4.15684 13.7744 3.93372 17.3051C3.7106 20.8358 4.85176 24.3181 7.12467 27.0425C9.39759 29.7668 12.6312 31.5282 16.1667 31.9678V21.6505H12.6667V18.1755H16.1667V15.3017C16.1667 12.9787 16.4117 12.136 16.8667 11.2863C17.3149 10.4457 18.0076 9.75855 18.8547 9.31429C19.5232 8.9581 20.3544 8.74439 21.8069 8.6523C22.3827 8.61581 23.1282 8.66099 24.0434 8.7913V12.0925H23.1667C21.5619 12.0925 20.8987 12.1673 20.5032 12.3775C20.2672 12.498 20.075 12.6888 19.9537 12.9231C19.7437 13.3157 19.6667 13.7049 19.6667 15.3V18.1755H24.0417L23.1667 21.6505H19.6667V31.9678ZM17.9167 35.5505C8.25142 35.5505 0.416672 27.7717 0.416672 18.1755C0.416672 8.57932 8.25142 0.800537 17.9167 0.800537C27.5819 0.800537 35.4167 8.57932 35.4167 18.1755C35.4167 27.7717 27.5819 35.5505 17.9167 35.5505Z" fill="#F9F8F7"/>
</svg>
