<svg width="35" height="35" viewBox="0 0 35 35" fill="none" xmlns="http://www.w3.org/2000/svg">
<path fill-rule="evenodd" clip-rule="evenodd" d="M10.2852 0.10425C12.1514 0.0189545 12.7464 0 17.5 0C22.2536 0 22.8486 0.0205341 24.7132 0.10425C26.5777 0.187966 27.8505 0.483341 28.9641 0.911398C30.1302 1.34893 31.1882 2.03287 32.0632 2.91742C32.9541 3.78459 33.6414 4.83341 34.0805 5.9928C34.5132 7.09848 34.8091 8.36211 34.895 10.2102C34.9809 12.0661 35 12.6569 35 17.375C35 22.0947 34.9793 22.6854 34.895 24.5382C34.8107 26.3863 34.5132 27.6499 34.0805 28.7556C33.6414 29.9152 32.9529 30.9657 32.0632 31.8342C31.1882 32.7187 30.1302 33.4011 28.9641 33.837C27.8505 34.2667 26.5777 34.5605 24.7164 34.6458C22.8486 34.731 22.2536 34.75 17.5 34.75C12.7464 34.75 12.1514 34.7295 10.2852 34.6458C8.42386 34.562 7.15114 34.2667 6.0375 33.837C4.86965 33.401 3.81153 32.7175 2.93682 31.8342C2.04651 30.9665 1.35755 29.9164 0.917955 28.7572C0.486818 27.6515 0.190909 26.3879 0.105 24.5398C0.0190909 22.6839 0 22.0931 0 17.375C0 12.6553 0.0206818 12.0646 0.105 10.2133C0.189318 8.36211 0.486818 7.09848 0.917955 5.9928C1.3582 4.83354 2.04769 3.78351 2.93841 2.91584C3.81188 2.03209 4.86893 1.34805 6.03591 0.911398C7.14955 0.483341 8.42227 0.189545 10.2836 0.10425H10.2852ZM24.5716 3.23175C22.7261 3.14803 22.1725 3.13066 17.5 3.13066C12.8275 3.13066 12.2739 3.14803 10.4284 3.23175C8.72136 3.30915 7.79545 3.59189 7.17818 3.8304C6.36205 4.14631 5.77818 4.52066 5.16568 5.12878C4.58507 5.6896 4.13824 6.37233 3.85795 7.12691C3.61773 7.73977 3.33295 8.65907 3.255 10.3539C3.17068 12.1862 3.15318 12.7359 3.15318 17.375C3.15318 22.0141 3.17068 22.5638 3.255 24.3961C3.33295 26.0909 3.61773 27.0102 3.85795 27.6231C4.13795 28.3765 4.585 29.0605 5.16568 29.6212C5.73045 30.1978 6.41932 30.6416 7.17818 30.9196C7.79545 31.1581 8.72136 31.4409 10.4284 31.5183C12.2739 31.602 12.8259 31.6193 17.5 31.6193C22.1741 31.6193 22.7261 31.602 24.5716 31.5183C26.2786 31.4409 27.2045 31.1581 27.8218 30.9196C28.638 30.6037 29.2218 30.2293 29.8343 29.6212C30.415 29.0605 30.862 28.3765 31.142 27.6231C31.3823 27.0102 31.667 26.0909 31.745 24.3961C31.8293 22.5638 31.8468 22.0141 31.8468 17.375C31.8468 12.7359 31.8293 12.1862 31.745 10.3539C31.667 8.65907 31.3823 7.73977 31.142 7.12691C30.8239 6.3166 30.4468 5.73691 29.8343 5.12878C29.2694 4.55236 28.5818 4.10873 27.8218 3.8304C27.2045 3.59189 26.2786 3.30915 24.5716 3.23175V3.23175ZM15.2648 22.7312C16.5131 23.2472 17.9031 23.3168 19.1974 22.9282C20.4917 22.5397 21.6099 21.717 22.3612 20.6008C23.1125 19.4846 23.4501 18.144 23.3164 16.8081C23.1828 15.4722 22.5861 14.2238 21.6284 13.2761C21.0179 12.6703 20.2797 12.2064 19.4669 11.9179C18.6541 11.6294 17.787 11.5234 16.9281 11.6075C16.0691 11.6916 15.2396 11.9638 14.4992 12.4044C13.7589 12.845 13.1262 13.4431 12.6466 14.1557C12.1671 14.8682 11.8526 15.6774 11.7258 16.5251C11.5991 17.3728 11.6632 18.2379 11.9136 19.058C12.164 19.8782 12.5944 20.633 13.1739 21.2681C13.7533 21.9033 14.4674 22.403 15.2648 22.7312ZM11.1395 11.06C11.9748 10.2307 12.9664 9.57284 14.0577 9.12403C15.1491 8.67521 16.3188 8.44421 17.5 8.44421C18.6812 8.44421 19.8509 8.67521 20.9423 9.12402C22.0336 9.57284 23.0252 10.2307 23.8605 11.06C24.6957 11.8893 25.3583 12.8738 25.8103 13.9573C26.2624 15.0409 26.495 16.2022 26.495 17.375C26.495 18.5478 26.2624 19.7091 25.8103 20.7927C25.3583 21.8762 24.6957 22.8607 23.8605 23.69C22.1736 25.3649 19.8856 26.3058 17.5 26.3058C15.1144 26.3058 12.8264 25.3649 11.1395 23.69C9.45265 22.0152 8.50496 19.7436 8.50496 17.375C8.50496 15.0064 9.45265 12.7348 11.1395 11.06V11.06ZM28.49 9.77423C28.697 9.58037 28.8627 9.34725 28.9773 9.08866C29.0919 8.83008 29.1531 8.55129 29.1573 8.26881C29.1614 7.98633 29.1084 7.70589 29.0015 7.4441C28.8945 7.18231 28.7357 6.94449 28.5345 6.74472C28.3333 6.54495 28.0938 6.3873 27.8301 6.28109C27.5664 6.17488 27.2839 6.12228 26.9994 6.1264C26.7149 6.13052 26.4341 6.19127 26.1737 6.30507C25.9132 6.41886 25.6784 6.58338 25.4832 6.78889C25.1034 7.18856 24.8956 7.71943 24.9036 8.26881C24.9117 8.81819 25.1351 9.34282 25.5264 9.73133C25.9177 10.1198 26.4461 10.3416 26.9994 10.3497C27.5528 10.3577 28.0875 10.1512 28.49 9.77423V9.77423Z" fill="#F9F8F7"/>
</svg>
