<svg width="31" height="23" viewBox="0 0 31 23" fill="none" xmlns="http://www.w3.org/2000/svg">
<path d="M5.6357 22.8857V21.3634C5.6357 20.7797 5.26346 20.3993 4.62542 20.3993C4.30646 20.3993 3.96085 20.5007 3.72157 20.8306C3.53557 20.5515 3.26977 20.3993 2.87101 20.3993C2.60509 20.3993 2.33941 20.4753 2.12665 20.7544V20.45H1.56841V22.8857H2.12665V21.5409C2.12665 21.1097 2.36593 20.9066 2.73817 20.9066C3.11017 20.9066 3.29641 21.135 3.29641 21.5409V22.8857H3.85466V21.5409C3.85466 21.1097 4.12034 20.9066 4.46594 20.9066C4.83818 20.9066 5.02418 21.135 5.02418 21.5409V22.8857H5.6357ZM13.9029 20.45H12.9992V19.7142H12.4409V20.45H11.9358V20.9319H12.4408V22.0484C12.4408 22.6067 12.6801 22.9364 13.3181 22.9364C13.5574 22.9364 13.8231 22.8604 14.0093 22.7589L13.8497 22.3021C13.6903 22.4036 13.5043 22.429 13.3713 22.429C13.1055 22.429 12.9992 22.2768 12.9992 22.023V20.9319H13.9029V20.45ZM18.6348 20.3991C18.3158 20.3991 18.1032 20.5515 17.9702 20.7544V20.45H17.4119V22.8857H17.9702V21.5156C17.9702 21.1097 18.1562 20.8813 18.5018 20.8813C18.6081 20.8813 18.7411 20.9068 18.8474 20.9321L19.0069 20.4247C18.9006 20.3993 18.7411 20.3993 18.6348 20.3993V20.3991ZM11.4839 20.6529C11.218 20.4753 10.8459 20.3993 10.4471 20.3993C9.8092 20.3993 9.38392 20.7037 9.38392 21.1858C9.38392 21.5918 9.70288 21.8201 10.2611 21.8962L10.5269 21.9216C10.8194 21.9723 10.9788 22.0484 10.9788 22.1753C10.9788 22.3529 10.7662 22.4798 10.394 22.4798C10.0218 22.4798 9.7294 22.3529 9.54328 22.2261L9.27748 22.632C9.56992 22.8349 9.96868 22.9364 10.3673 22.9364C11.1117 22.9364 11.5371 22.6067 11.5371 22.1499C11.5371 21.7186 11.1915 21.4902 10.6598 21.4141L10.394 21.3887C10.1547 21.3633 9.96868 21.3127 9.96868 21.1604C9.96868 20.9828 10.1547 20.8813 10.4471 20.8813C10.7662 20.8813 11.0852 21.0081 11.2446 21.0843L11.4839 20.6529ZM26.3173 20.3993C25.9982 20.3993 25.7856 20.5515 25.6526 20.7544V20.45H25.0944V22.8857H25.6526V21.5156C25.6526 21.1097 25.8387 20.8813 26.1842 20.8813C26.2907 20.8813 26.4236 20.9068 26.5299 20.9321L26.6894 20.4247C26.5831 20.3993 26.4236 20.3993 26.3173 20.3993ZM19.193 21.6678C19.193 22.4036 19.7246 22.9364 20.5488 22.9364C20.9209 22.9364 21.1867 22.8604 21.4525 22.6574L21.1867 22.2261C20.974 22.3783 20.7614 22.4543 20.5221 22.4543C20.0702 22.4543 19.7512 22.1499 19.7512 21.6678C19.7512 21.2112 20.0702 20.9066 20.5221 20.8813C20.7614 20.8813 20.974 20.9574 21.1867 21.1097L21.4525 20.6784C21.1867 20.4753 20.9209 20.3993 20.5488 20.3993C19.7246 20.3993 19.193 20.9321 19.193 21.6678ZM24.3501 21.6678V20.45H23.7919V20.7544C23.6058 20.5262 23.34 20.3993 22.9944 20.3993C22.2766 20.3993 21.7184 20.9321 21.7184 21.6678C21.7184 22.4036 22.2766 22.9364 22.9944 22.9364C23.3665 22.9364 23.6324 22.8096 23.7919 22.5812V22.8857H24.3501V21.6678ZM22.3032 21.6678C22.3032 21.2365 22.5956 20.8813 23.074 20.8813C23.526 20.8813 23.8451 21.2112 23.8451 21.6678C23.8451 22.0992 23.526 22.4543 23.074 22.4543C22.5956 22.4289 22.3032 22.0992 22.3032 21.6678ZM15.6309 20.3993C14.8865 20.3993 14.3548 20.9066 14.3548 21.6678C14.3548 22.429 14.8864 22.9364 15.6574 22.9364C16.0295 22.9364 16.4018 22.8349 16.6942 22.6067L16.4283 22.2261C16.2157 22.3783 15.9499 22.4798 15.6841 22.4798C15.3385 22.4798 14.9929 22.3276 14.9131 21.8961H16.8005V21.6933C16.8272 20.9066 16.3486 20.3993 15.6308 20.3993H15.6309ZM15.6309 20.8559C15.9764 20.8559 16.2158 21.059 16.2688 21.4396H14.9397C14.9929 21.1097 15.2321 20.8559 15.6309 20.8559ZM29.4806 21.6678V19.4858H28.9224V20.7544C28.7363 20.5262 28.4705 20.3993 28.1249 20.3993C27.4071 20.3993 26.8489 20.9321 26.8489 21.6678C26.8489 22.4036 27.4071 22.9364 28.1249 22.9364C28.4971 22.9364 28.7629 22.8096 28.9224 22.5812V22.8857H29.4806V21.6678ZM27.4338 21.6678C27.4338 21.2365 27.7261 20.8813 28.2047 20.8813C28.6566 20.8813 28.9756 21.2112 28.9756 21.6678C28.9756 22.0992 28.6566 22.4543 28.2047 22.4543C27.7261 22.4289 27.4338 22.0992 27.4338 21.6678ZM8.77239 21.6678V20.45H8.21415V20.7544C8.02803 20.5262 7.76223 20.3993 7.41663 20.3993C6.69891 20.3993 6.14066 20.9321 6.14066 21.6678C6.14066 22.4036 6.69891 22.9364 7.41663 22.9364C7.78887 22.9364 8.05467 22.8096 8.21415 22.5812V22.8857H8.77239V21.6678ZM6.6989 21.6678C6.6989 21.2365 6.99135 20.8813 7.46979 20.8813C7.92171 20.8813 8.24079 21.2112 8.24079 21.6678C8.24079 22.0992 7.92171 22.4543 7.46979 22.4543C6.99135 22.4289 6.6989 22.0992 6.6989 21.6678Z" fill="#F9F8F7"/>
<path d="M11.2978 1.95361H19.6714V16.3143H11.2978V1.95361Z" fill="#FF5F00"/>
<path d="M11.8295 9.13401C11.8295 6.21624 13.265 3.62822 15.4713 1.95361C13.8499 0.735769 11.803 0 9.57004 0C4.27982 0 0 4.08487 0 9.13401C0 14.183 4.27982 18.268 9.56992 18.268C11.8029 18.268 13.8497 17.5322 15.4713 16.3143C13.265 14.6651 11.8295 12.0518 11.8295 9.13401Z" fill="#EB001B"/>
<path d="M30.9692 9.13401C30.9692 14.183 26.6894 18.268 21.3993 18.268C19.1664 18.268 17.1195 17.5322 15.4979 16.3143C17.7309 14.6398 19.1398 12.0518 19.1398 9.13401C19.1398 6.21624 17.7043 3.62822 15.4979 1.95361C17.1194 0.735769 19.1664 0 21.3993 0C26.6894 0 30.9694 4.1103 30.9694 9.13401H30.9692Z" fill="#F79E1B"/>
</svg>
