<svg width="36" height="36" viewBox="0 0 36 36" fill="none" xmlns="http://www.w3.org/2000/svg">
<path d="M26.4167 12.871C25.7727 13.149 25.0814 13.3401 24.3552 13.4235C25.0972 12.9891 25.6642 12.3011 25.9337 11.4827C25.2266 11.8918 24.4551 12.1796 23.6517 12.3341C23.3137 11.9824 22.9071 11.7027 22.4567 11.5121C22.0063 11.3215 21.5215 11.224 21.0319 11.2255C19.0492 11.2255 17.4427 12.798 17.4427 14.7353C17.4427 15.0098 17.4742 15.2774 17.5354 15.5345C16.1132 15.4675 14.7208 15.1068 13.4468 14.4756C12.1729 13.8444 11.0454 12.9564 10.1364 11.8684C9.81716 12.402 9.64906 13.0113 9.64992 13.632C9.64992 14.8482 10.2852 15.9255 11.2477 16.5527C10.678 16.535 10.1204 16.3844 9.62017 16.1131V16.1566C9.62558 16.9723 9.91557 17.7609 10.4408 18.3881C10.966 19.0154 11.6939 19.4425 12.5007 19.5968C11.971 19.7359 11.4169 19.756 10.8784 19.6559C11.1131 20.3576 11.5621 20.9694 12.163 21.4062C12.7638 21.843 13.4868 22.0833 14.2314 22.0936C12.9539 23.071 11.3853 23.5991 9.77242 23.5948C9.48367 23.5948 9.19842 23.5774 8.91667 23.5462C10.5625 24.5805 12.4709 25.1283 14.4187 25.1255C21.0232 25.1255 24.6334 19.7775 24.6334 15.1384L24.6212 14.6832C25.3252 14.1919 25.9335 13.5779 26.4167 12.871V12.871Z" fill="#F9F8F7"/>
<path d="M7.16667 4.27554C6.23841 4.27554 5.34818 4.64165 4.6918 5.29334C4.03542 5.94503 3.66667 6.82891 3.66667 7.75054V28.6005C3.66667 29.5222 4.03542 30.406 4.6918 31.0577C5.34818 31.7094 6.23841 32.0755 7.16667 32.0755H28.1667C29.0949 32.0755 29.9852 31.7094 30.6415 31.0577C31.2979 30.406 31.6667 29.5222 31.6667 28.6005V7.75054C31.6667 6.82891 31.2979 5.94503 30.6415 5.29334C29.9852 4.64165 29.0949 4.27554 28.1667 4.27554H7.16667ZM7.16667 0.800537H28.1667C30.0232 0.800537 31.8037 1.53277 33.1164 2.83615C34.4292 4.13952 35.1667 5.90728 35.1667 7.75054V28.6005C35.1667 30.4438 34.4292 32.2115 33.1164 33.5149C31.8037 34.8183 30.0232 35.5505 28.1667 35.5505H7.16667C5.31016 35.5505 3.52968 34.8183 2.21692 33.5149C0.90417 32.2115 0.166672 30.4438 0.166672 28.6005V7.75054C0.166672 5.90728 0.90417 4.13952 2.21692 2.83615C3.52968 1.53277 5.31016 0.800537 7.16667 0.800537V0.800537Z" fill="#F9F8F7"/>
</svg>
