<svg width="31" height="22" viewBox="0 0 31 22" fill="none" xmlns="http://www.w3.org/2000/svg">
<path d="M0 0H31V2.75H0V0ZM0 19.25H31V22H0V19.25ZM26.2401 15.0067L25.9949 13.8105H23.2486L22.8118 14.9971L20.6108 15.0012C22.0269 11.693 23.0767 9.24 23.7615 7.64775C23.9405 7.23113 24.2589 7.01938 24.7267 7.02213C25.0846 7.02488 25.6694 7.02488 26.481 7.02213L28.1818 15.004L26.2401 15.0081V15.0067ZM23.8672 12.1715H25.637L24.9747 9.174L23.8672 12.1715ZM9.68327 7.02075L11.8955 7.0235L8.47568 15.0067L6.23523 15.0054C5.47855 12.1591 4.92195 10.0471 4.56686 8.6735C4.45836 8.25137 4.24277 7.95712 3.82568 7.81825C3.45509 7.6945 2.83791 7.502 1.97273 7.24213V7.02213H5.50814C6.11968 7.02213 6.47618 7.31087 6.59173 7.90212L7.46536 12.4245L9.68327 7.02075V7.02075ZM14.935 7.0235L13.1877 15.0054L11.0811 15.0026L12.8284 7.02075L14.935 7.0235ZM19.2073 6.875C19.8358 6.875 20.6305 7.06475 21.087 7.24213L20.7179 8.89762C20.305 8.73537 19.6258 8.51675 19.0551 8.52638C18.2238 8.53875 17.7109 8.87838 17.7109 9.20425C17.7109 9.73225 18.6014 9.999 19.5201 10.5779C20.5671 11.2379 20.7038 11.8291 20.6911 12.4726C20.677 13.8078 19.5201 15.125 17.0782 15.125C15.9636 15.1085 15.562 15.0178 14.6545 14.7043L15.0378 12.9772C15.9622 13.354 16.3553 13.4736 17.1444 13.4736C17.8701 13.4736 18.4915 13.189 18.4971 12.6926C18.5 12.3392 18.2787 12.1646 17.4657 11.7274C16.6526 11.2915 15.5141 10.6879 15.5282 9.47237C15.5465 7.91862 17.0599 6.875 19.2059 6.875H19.2073Z" fill="#F9F8F7"/>
</svg>
